#define cross_width 16
#define cross_height 16
#define cross_x_hot 7
#define cross_y_hot 7
static char cross_bits[] =
{
  0x00, 0x00, 0xc0, 0x03, 0xa0, 0x05, 0x00, 0x00, 0x80, 0x01, 0x04, 0x20,
  0x82, 0x41, 0x56, 0x6a, 0x56, 0x6a, 0x82, 0x41, 0x04, 0x20, 0x80, 0x01,
  0x00, 0x00, 0xa0, 0x05, 0xc0, 0x03, 0x00, 0x00};
