#define orimplanet_width 16
#define orimplanet_height 16
static char orimplanet_bits[] =
{
  0xe0, 0x03, 0x18, 0x0c, 0x04, 0x10, 0x82, 0x20, 0xa2, 0x22, 0xf1, 0x47,
  0x21, 0x42, 0xb9, 0x4e, 0x21, 0x42, 0xf1, 0x47, 0xa2, 0x22, 0x82, 0x20,
  0x04, 0x10, 0x18, 0x0c, 0xe0, 0x03, 0x00, 0x00};
