#define oriplanet_width 30
#define oriplanet_height 30
static char oriplanet_bits[] =
{
  0x00, 0xf8, 0x03, 0x00, 0x00, 0x07, 0x1c, 0x00, 0xc0, 0x00, 0x60, 0x00,
  0x20, 0x00, 0x80, 0x00, 0x10, 0x40, 0x00, 0x01, 0x08, 0x40, 0x00, 0x02,
  0x04, 0x48, 0x02, 0x04, 0x04, 0x49, 0x12, 0x04, 0x82, 0xff, 0x3f, 0x08,
  0x02, 0x01, 0x10, 0x08, 0x02, 0x01, 0x10, 0x08, 0xc1, 0xe1, 0x70, 0x10,
  0x01, 0xf1, 0x11, 0x10, 0x01, 0xf9, 0x13, 0x10, 0xf1, 0xf9, 0xf3, 0x11,
  0x01, 0xf9, 0x13, 0x10, 0x01, 0xf1, 0x11, 0x10, 0xc1, 0xe1, 0x70, 0x10,
  0x02, 0x01, 0x10, 0x08, 0x02, 0x01, 0x10, 0x08, 0x82, 0xff, 0x3f, 0x08,
  0x04, 0x49, 0x12, 0x04, 0x04, 0x48, 0x02, 0x04, 0x08, 0x40, 0x00, 0x02,
  0x10, 0x40, 0x00, 0x01, 0x20, 0x00, 0x80, 0x00, 0xc0, 0x00, 0x60, 0x00,
  0x00, 0x07, 0x1c, 0x00, 0x00, 0xf8, 0x03, 0x00, 0x00, 0x00, 0x00, 0x00};
