#define planet101_width 30
#define planet101_height 30
static char planet101_bits[] =
{
  0x00, 0xf8, 0x03, 0x00, 0x00, 0x07, 0x1c, 0x00, 0xc0, 0x00, 0x60, 0x00,
  0x20, 0x00, 0x80, 0x00, 0x10, 0x00, 0x00, 0x01, 0x08, 0x00, 0x00, 0x02,
  0x04, 0x00, 0x00, 0x04, 0xc4, 0x01, 0x00, 0x04, 0xc2, 0x01, 0x00, 0x08,
  0xc2, 0x01, 0xf8, 0x08, 0x82, 0x00, 0x08, 0x09, 0xf1, 0x07, 0x08, 0x12,
  0xe9, 0x0b, 0xa8, 0x12, 0xa9, 0x0a, 0x48, 0x12, 0xe9, 0x0b, 0xa8, 0x12,
  0xa9, 0x0a, 0x08, 0x12, 0xe9, 0x0b, 0x08, 0x12, 0x61, 0x03, 0x08, 0x12,
  0x62, 0x03, 0x08, 0x0a, 0x62, 0x03, 0xf8, 0x0b, 0x62, 0x03, 0x00, 0x08,
  0x64, 0x03, 0x00, 0x04, 0x04, 0x00, 0x00, 0x04, 0x08, 0x00, 0x00, 0x02,
  0x10, 0x00, 0x00, 0x01, 0x20, 0x00, 0x80, 0x00, 0xc0, 0x00, 0x60, 0x00,
  0x00, 0x07, 0x1c, 0x00, 0x00, 0xf8, 0x03, 0x00, 0x00, 0x00, 0x00, 0x00};
