#define shield_width 20
#define shield_height 20
static char shield_bits[] =
  {
    0xc0, 0x36, 0x00, 0x20, 0x40, 0x00, 0x08, 0x00, 0x01, 0x04, 0x00, 0x02,
    0x00, 0x00, 0x00, 0x02, 0x00, 0x04, 0x01, 0x00, 0x08, 0x01, 0x00, 0x08,
    0x00, 0x00, 0x00, 0x01, 0x00, 0x08, 0x01, 0x00, 0x08, 0x00, 0x00, 0x00,
    0x01, 0x00, 0x08, 0x01, 0x00, 0x08, 0x02, 0x00, 0x04, 0x00, 0x00, 0x00,
    0x04, 0x00, 0x02, 0x08, 0x00, 0x01, 0x20, 0x40, 0x00, 0xc0, 0x36, 0x00};
