#define shield_width 20
#define shield_height 20
static char shield_bits[] =
  {
    0x40, 0x29, 0x00, 0x10, 0x80, 0x00, 0x00, 0x00, 0x00, 0x04, 0x00, 0x02,
    0x00, 0x00, 0x00, 0x02, 0x00, 0x04, 0x00, 0x00, 0x00, 0x01, 0x00, 0x08,
    0x00, 0x00, 0x00, 0x01, 0x00, 0x08, 0x01, 0x00, 0x08, 0x00, 0x00, 0x00,
    0x01, 0x00, 0x08, 0x00, 0x00, 0x00, 0x02, 0x00, 0x04, 0x00, 0x00, 0x00,
    0x04, 0x00, 0x02, 0x00, 0x00, 0x00, 0x10, 0x80, 0x00, 0x40, 0x29, 0x00};
